<svg width="140" height="96" viewBox="0 0 140 96" fill="none" xmlns="http://www.w3.org/2000/svg">
<path d="M139.31 63.62C139.31 47.2 126.83 33.63 110.85 31.89C108.52 23.62 103.69 16.17 97.02 10.63C89.37 4.28 79.67 0.789993 69.7 0.789993C59.73 0.789993 50.02 4.29 42.38 10.63C35.71 16.16 30.88 23.62 28.55 31.89C12.57 33.63 0.090011 47.2 0.090011 63.62C0.090011 63.63 0.090011 63.64 0.090011 63.66C0.080011 65.22 0.280015 76.43 8.68001 85.1C15.06 91.68 24.33 95.02 36.23 95.02C47.68 95.02 58.93 93.04 69.71 89.13C73.1 90.36 76.56 91.41 80.07 92.26C87.63 94.09 95.4 95.03 103.18 95.03C115.07 95.03 124.34 91.69 130.73 85.11C139.07 76.51 139.33 65.41 139.32 63.71C139.31 63.67 139.31 63.64 139.31 63.62ZM130.58 63.75V63.73C130.58 63.82 130.68 72.66 124.38 79.09C119.7 83.86 112.56 86.28 103.17 86.28C87.26 86.28 74.37 81.97 66.37 78.35C58.82 74.94 54.06 71.48 52.87 70.58C52.75 70.49 52.66 70.38 52.6 70.25C52.55 70.15 52.52 70.03 52.52 69.89V51.68C52.52 51.35 52.7 51.04 53 50.89L69.29 42.53C69.54 42.4 69.85 42.4 70.1 42.53L86.39 50.89C86.69 51.04 86.87 51.35 86.87 51.68V69.89C86.87 70.15 86.73 70.37 86.65 70.48C85.9 71.14 83.02 73.2 78.61 75.58C82.26 76.67 86.32 77.63 90.75 78.3C91.74 77.59 92.27 77.16 92.32 77.12L92.4 77.05C93.88 75.79 95.6 73.15 95.6 69.89V51.68C95.6 48.06 93.6 44.78 90.37 43.12L74.08 34.76C71.33 33.35 68.05 33.35 65.3 34.76L49.01 43.12C45.79 44.77 43.78 48.05 43.78 51.68V69.89C43.78 73.16 45.5 75.79 46.98 77.05L47.06 77.12C47.25 77.27 50.92 80.24 57.48 83.71C50.53 85.42 43.41 86.28 36.21 86.28C26.82 86.28 19.68 83.86 15 79.09C8.70001 72.66 8.80002 63.82 8.80002 63.73V63.75C8.80002 63.71 8.80002 63.66 8.80002 63.62C8.80002 50.83 19.22 40.43 32.02 40.43H35.61L36.3 36.9C37.79 29.28 41.92 22.34 47.94 17.35C54.02 12.3 61.75 9.51999 69.69 9.51999C77.63 9.51999 85.35 12.3 91.44 17.35C97.45 22.34 101.58 29.28 103.08 36.9L103.77 40.43H107.36C120.16 40.43 130.58 50.83 130.58 63.62C130.58 63.66 130.59 63.7 130.58 63.75Z" fill="#1D97FF"/>
</svg>
