<svg width="700" height="150" xmlns="http://www.w3.org/2000/svg">
 <style type="text/css">.st0{fill:#112857;}
	.st1{fill:#1D97FF;}</style>

 <g>
  <title>background</title>
  <rect fill="none" id="canvas_background" height="152" width="702" y="-1" x="-1"/>
 </g>
 <g>
  <title>Layer 1</title>
  <g id="svg_1">
   <path id="svg_2" d="m200.06,100.465007c0.91,-0.85 2.35,-0.8 3.18,0.13c2.26,2.49 7.17,6.74 14.46,6.74c5.33,0 11.34,-2.27 11.34,-6.46c0,-4.54 -3.86,-6.81 -11.91,-8.39c-11.23,-2.27 -19.17,-6.69 -19.17,-16.56c0,-7.6 7.6,-15.08 19.28,-15.08c8.73,0 14.8,3.96 17.62,6.29c1.01,0.84 1.1,2.35 0.19,3.3l-3.14,3.25c-0.81,0.84 -2.13,0.92 -3.04,0.17c-2.1,-1.71 -6.24,-4.39 -11.63,-4.39c-6.69,0 -9.98,3.29 -9.98,6.69c0,3.97 4.08,6.12 12.7,7.94c9.98,2.15 18.49,5.9 18.49,16.56c0,10.09 -10.66,15.31 -20.76,15.31c-11.07,0 -18.18,-6.2 -21.03,-9.29c-0.84,-0.9 -0.77,-2.32 0.13,-3.16l3.27,-3.05z" class="st0"/>
   <path id="svg_3" d="m297.69,88.725007c0,1.02 0,1.82 -0.11,3.06l-42.3,0c0.57,7.94 8.17,15.31 18.03,15.31c7.17,0 11.99,-3.73 14.26,-6c0.88,-0.88 2.32,-0.86 3.19,0.04l2.87,2.98c0.85,0.88 0.83,2.28 -0.03,3.15c-2.9,2.91 -9.95,8.68 -20.29,8.68c-15.88,0 -27.33,-12.02 -27.33,-27.56c0,-15.31 10.43,-27.56 26.2,-27.56c14.62,0 25.51,11 25.51,27.9zm-9.31,-4.87c-0.34,-5.9 -5.67,-14.18 -16.22,-14.18c-11.34,0 -15.99,8.73 -16.67,14.18l32.89,0z" class="st0"/>
   <path id="svg_4" d="m353.42,80.905007l0,31.44c0,1.24 -1,2.24 -2.24,2.24l-5.04,0c-1.24,0 -2.24,-1 -2.24,-2.24l0,-29.85c0,-8.96 -5.56,-12.82 -12.59,-12.82c-8.51,0 -13.04,8.85 -13.04,8.85l0,33.82c0,1.24 -1,2.24 -2.24,2.24l-5.04,0c-1.24,0 -2.24,-1 -2.24,-2.24l0,-47.91c0,-1.24 1,-2.24 2.24,-2.24l4.36,0c1.24,0 2.24,1 2.24,2.24l0,5.13c0,0 4.76,-8.73 16.11,-8.73c10.42,-0.01 19.72,7.14 19.72,20.07z" class="st0"/>
   <path id="svg_5" d="m406.57,68.655007l0,-32.37c0,-1.24 1,-2.24 2.24,-2.24l5.04,0c1.24,0 2.24,1 2.24,2.24l0,76.06c0,1.24 -1,2.24 -2.24,2.24l-4.25,0c-1.24,0 -2.24,-1 -2.24,-2.24l0,-5.36c0,0 -5.1,8.96 -17.69,8.96c-14.18,0 -25.41,-12.14 -25.41,-27.56c0,-15.42 11.23,-27.56 25.41,-27.56c11.56,0 16.9,7.83 16.9,7.83zm0,10.09c0,0 -4.99,-9.07 -15.42,-9.07c-10.43,0 -17.35,8.39 -17.35,18.71c0,10.32 6.69,18.71 17.35,18.71c10.43,0 15.42,-9.07 15.42,-9.07l0,-19.28z" class="st0"/>
   <path id="svg_6" d="m475.01,107.515007c-2.69,2.72 -8.97,7.87 -18.38,8.39c-15.52,0.87 -28.42,-11.7 -28.57,-27.23c-0.14,-15.44 11.47,-27.84 26.99,-27.84c9.67,0 16.27,4.92 19.18,7.64c0.96,0.9 0.95,2.43 -0.04,3.31l-3.15,2.82c-0.85,0.76 -2.13,0.77 -2.98,0.01c-2.1,-1.87 -6.54,-4.95 -13.01,-4.95c-10.55,0 -17.47,8.39 -17.47,18.71c0,10.32 6.92,18.71 17.47,18.71c7.03,0 11.64,-3.55 13.82,-5.76c0.88,-0.89 2.32,-0.88 3.19,0.01l2.95,3c0.87,0.9 0.86,2.3 0,3.18z" class="st0"/>
   <path id="svg_7" d="m488.28,34.035007l5.04,0c1.24,0 2.24,1 2.24,2.24l0,76.06c0,1.24 -1,2.24 -2.24,2.24l-5.04,0c-1.24,0 -2.24,-1 -2.24,-2.24l0,-76.06c0,-1.23 1,-2.24 2.24,-2.24z" class="st0"/>
   <path id="svg_8" d="m561.53,88.385007c0,15.42 -11.57,27.56 -26.99,27.56s-26.99,-12.14 -26.99,-27.56c0,-15.42 11.57,-27.56 26.99,-27.56s26.99,12.14 26.99,27.56zm-9.53,0c0,-10.32 -6.92,-18.71 -17.47,-18.71c-10.55,0 -17.47,8.39 -17.47,18.71c0,10.32 6.92,18.71 17.47,18.71c10.55,0.01 17.47,-8.39 17.47,-18.71z" class="st0"/>
   <path id="svg_9" d="m572.37,95.875007l0,-31.44c0,-1.24 1,-2.24 2.24,-2.24l5.04,0c1.24,0 2.24,1 2.24,2.24l0,29.85c0,8.96 5.56,12.82 12.59,12.82c8.85,0 13.04,-8.62 13.04,-8.62l0,-34.05c0,-1.24 1,-2.24 2.24,-2.24l5.04,0c1.24,0 2.24,1 2.24,2.24l0,47.91c0,1.24 -1,2.24 -2.24,2.24l-4.36,0c-1.24,0 -2.24,-1 -2.24,-2.24l0,-5.81c0,0 -4.76,9.41 -16.11,9.41c-10.42,0 -19.72,-7.14 -19.72,-20.07z" class="st0"/>
   <path id="svg_10" d="m670.41,68.655007l0,-32.37c0,-1.24 1,-2.24 2.24,-2.24l5.04,0c1.24,0 2.24,1 2.24,2.24l0,76.06c0,1.24 -1,2.24 -2.24,2.24l-4.25,0c-1.24,0 -2.24,-1 -2.24,-2.24l0,-5.36c0,0 -5.1,8.96 -17.69,8.96c-14.18,0 -25.41,-12.14 -25.41,-27.56c0,-15.42 11.23,-27.56 25.41,-27.56c11.57,0 16.9,7.83 16.9,7.83zm0,10.09c0,0 -4.99,-9.07 -15.43,-9.07c-10.43,0 -17.35,8.39 -17.35,18.71c0,10.32 6.69,18.71 17.35,18.71c10.43,0 15.43,-9.07 15.43,-9.07l0,-19.28z" class="st0"/>
  </g>
  <path id="svg_11" d="m159.31,90.71c0,-16.42 -12.48,-29.99 -28.46,-31.73c-2.33,-8.27 -7.16,-15.72 -13.83,-21.26c-7.65,-6.35 -17.35,-9.84 -27.32,-9.84c-9.97,0 -19.68,3.5 -27.32,9.84c-6.67,5.53 -11.5,12.99 -13.83,21.26c-15.98,1.74 -28.46,15.31 -28.46,31.73c0,0.01 0,0.02 0,0.04c-0.01,1.56 0.19,12.77 8.59,21.44c6.38,6.58 15.65,9.92 27.55,9.92c11.45,0 22.7,-1.98 33.48,-5.89c3.39,1.23 6.85,2.28 10.36,3.13c7.56,1.83 15.33,2.77 23.11,2.77c11.89,0 21.16,-3.34 27.55,-9.92c8.34,-8.6 8.6,-19.7 8.59,-21.4c-0.01,-0.04 -0.01,-0.07 -0.01,-0.09zm-8.73,0.13l0,-0.02c0,0.09 0.1,8.93 -6.2,15.36c-4.68,4.77 -11.82,7.19 -21.21,7.19c-15.91,0 -28.8,-4.31 -36.8,-7.93c-7.55,-3.41 -12.31,-6.87 -13.5,-7.77c-0.12,-0.09 -0.21,-0.2 -0.27,-0.33c-0.05,-0.1 -0.08,-0.22 -0.08,-0.36l0,-18.21c0,-0.33 0.18,-0.64 0.48,-0.79l16.29,-8.36c0.25,-0.13 0.56,-0.13 0.81,0l16.29,8.36c0.3,0.15 0.48,0.46 0.48,0.79l0,18.21c0,0.26 -0.14,0.48 -0.22,0.59c-0.75,0.66 -3.63,2.72 -8.04,5.1c3.65,1.09 7.71,2.05 12.14,2.72c0.99,-0.71 1.52,-1.14 1.57,-1.18l0.08,-0.07c1.48,-1.26 3.2,-3.9 3.2,-7.16l0,-18.21c0,-3.62 -2,-6.9 -5.23,-8.56l-16.29,-8.36c-2.75,-1.41 -6.03,-1.41 -8.78,0l-16.29,8.36c-3.22,1.65 -5.23,4.93 -5.23,8.56l0,18.21c0,3.27 1.72,5.9 3.2,7.16l0.08,0.07c0.19,0.15 3.86,3.12 10.42,6.59c-6.95,1.71 -14.07,2.57 -21.27,2.57c-9.39,0 -16.53,-2.42 -21.21,-7.19c-6.3,-6.43 -6.2,-15.27 -6.2,-15.36l0,0.02l0,0c0,-0.04 0,-0.09 0,-0.13c0,-12.79 10.42,-23.19 23.22,-23.19l3.59,0l0.69,-3.53c1.49,-7.62 5.62,-14.56 11.64,-19.55c6.08,-5.05 13.81,-7.83 21.75,-7.83c7.94,0 15.66,2.78 21.75,7.83c6.01,4.99 10.14,11.93 11.64,19.55l0.69,3.53l3.59,0c12.8,0 23.22,10.4 23.22,23.19c0,0.04 0.01,0.08 0,0.13l0,0z" class="st1"/>
 </g>
</svg>